<svg id="mail" xmlns="http://www.w3.org/2000/svg" width="26.026" height="19.824" viewBox="0 0 26.026 19.824">
  <g id="Group_359" data-name="Group 359" transform="translate(0 0)">
    <path id="Path_915" data-name="Path 915" d="M23.739,61H2.287A2.291,2.291,0,0,0,0,63.287v15.25a2.291,2.291,0,0,0,2.287,2.287H23.739a2.291,2.291,0,0,0,2.287-2.287V63.287A2.291,2.291,0,0,0,23.739,61Zm-.316,1.525L13.061,72.886,2.611,62.525Zm-21.9,15.7V63.6l7.344,7.281ZM2.6,79.3l7.349-7.349L12.527,74.5a.762.762,0,0,0,1.076,0l2.511-2.511L23.423,79.3Zm21.9-1.078-7.309-7.309L24.5,63.6Z" transform="translate(0 -61)" fill="#022a48"/>
  </g>
</svg>
