<svg id="smartphone" xmlns="http://www.w3.org/2000/svg" width="14.663" height="26.734" viewBox="0 0 14.663 26.734">
  <g id="Group_360" data-name="Group 360" transform="translate(0)">
    <path id="Path_917" data-name="Path 917" d="M125.563,0h-9.031a2.838,2.838,0,0,0-2.84,2.787V23.95a2.811,2.811,0,0,0,2.812,2.784l9.046-.01a2.793,2.793,0,0,0,2.791-2.784l.013-21.154A2.787,2.787,0,0,0,125.563,0Zm-5.82,1.671h2.62a.418.418,0,1,1,0,.835h-2.62a.418.418,0,1,1,0-.835Zm-1.574.133a.433.433,0,0,1,.591,0,.419.419,0,0,1-.295.714.428.428,0,0,1-.3-.123.421.421,0,0,1,0-.591Zm2.8,24.1a1.25,1.25,0,1,1,1.25-1.25A1.251,1.251,0,0,1,120.969,25.906Zm6.09-3.35h-11.9V3.968h11.9Z" transform="translate(-113.692)" fill="#022a48"/>
  </g>
</svg>
